<mxfile host="app.diagrams.net" modified="2021-10-31T18:32:26.824Z" agent="5.0 (Windows NT 10.0; Win64; x64) AppleWebKit/537.36 (KHTML, like Gecko) Chrome/95.0.4638.54 Safari/537.36" etag="vpT4rqGLPmcA0JJd5uvZ" version="15.6.3" type="github">
  <diagram id="kQYQ7ZY42pBOONnznJGe" name="Page-1">
    <mxGraphModel dx="1296" dy="1775" grid="1" gridSize="10" guides="1" tooltips="1" connect="1" arrows="1" fold="1" page="1" pageScale="1" pageWidth="850" pageHeight="1100" math="0" shadow="0">
      <root>
        <mxCell id="0" />
        <mxCell id="1" parent="0" />
        <mxCell id="vfHAoLINmW1o7PDfFwCl-18" value="" style="rounded=0;whiteSpace=wrap;html=1;fillColor=#eeeeee;align=center;strokeColor=#36393d;glass=0;sketch=0;shadow=0;" vertex="1" parent="1">
          <mxGeometry x="380" y="150" width="470" height="360" as="geometry" />
        </mxCell>
        <mxCell id="ZSADZLsk4UOC9W3OqM0E-18" value="" style="group" parent="1" vertex="1" connectable="0">
          <mxGeometry x="400" y="166" width="141" height="80" as="geometry" />
        </mxCell>
        <mxCell id="ZSADZLsk4UOC9W3OqM0E-14" value="" style="shape=image;html=1;verticalAlign=top;verticalLabelPosition=bottom;labelBackgroundColor=#ffffff;imageAspect=0;aspect=fixed;image=https://cdn4.iconfinder.com/data/icons/essential-3/32/368-Computer-128.png;strokeColor=default;" parent="ZSADZLsk4UOC9W3OqM0E-18" vertex="1">
          <mxGeometry x="51.5" width="38" height="38" as="geometry" />
        </mxCell>
        <mxCell id="ZSADZLsk4UOC9W3OqM0E-15" value="Point of Sale &lt;br&gt;Application" style="text;html=1;strokeColor=none;fillColor=none;align=center;verticalAlign=middle;whiteSpace=wrap;rounded=0;" parent="ZSADZLsk4UOC9W3OqM0E-18" vertex="1">
          <mxGeometry y="38" width="141" height="30" as="geometry" />
        </mxCell>
        <mxCell id="ZSADZLsk4UOC9W3OqM0E-28" value="" style="shape=image;html=1;verticalAlign=top;verticalLabelPosition=bottom;labelBackgroundColor=#ffffff;imageAspect=0;aspect=fixed;image=https://cdn4.iconfinder.com/data/icons/logos-and-brands/512/306_Slack_logo-128.png;strokeColor=default;" parent="1" vertex="1">
          <mxGeometry x="650" y="1100" width="50" height="50" as="geometry" />
        </mxCell>
        <mxCell id="vfHAoLINmW1o7PDfFwCl-64" style="edgeStyle=orthogonalEdgeStyle;rounded=0;orthogonalLoop=1;jettySize=auto;html=1;entryX=0.5;entryY=0;entryDx=0;entryDy=0;fontColor=#000000;startArrow=classic;startFill=1;endArrow=classic;endFill=1;strokeColor=#FF0080;" edge="1" parent="1" source="ZSADZLsk4UOC9W3OqM0E-31" target="vfHAoLINmW1o7PDfFwCl-53">
          <mxGeometry relative="1" as="geometry">
            <Array as="points">
              <mxPoint x="305" y="240" />
              <mxPoint x="305" y="240" />
            </Array>
          </mxGeometry>
        </mxCell>
        <mxCell id="vfHAoLINmW1o7PDfFwCl-66" value="STEP 1" style="edgeLabel;html=1;align=center;verticalAlign=middle;resizable=0;points=[];fontColor=#000000;" vertex="1" connectable="0" parent="vfHAoLINmW1o7PDfFwCl-64">
          <mxGeometry x="0.2512" y="-1" relative="1" as="geometry">
            <mxPoint x="1" y="-4" as="offset" />
          </mxGeometry>
        </mxCell>
        <mxCell id="ZSADZLsk4UOC9W3OqM0E-31" value="" style="shape=image;html=1;verticalAlign=top;verticalLabelPosition=bottom;labelBackgroundColor=#ffffff;imageAspect=0;aspect=fixed;image=https://cdn3.iconfinder.com/data/icons/popular-services-brands-vol-2/512/shopify-128.png;strokeColor=default;" parent="1" vertex="1">
          <mxGeometry x="280" y="160" width="50" height="50" as="geometry" />
        </mxCell>
        <mxCell id="ZSADZLsk4UOC9W3OqM0E-41" value="" style="shape=image;html=1;verticalAlign=top;verticalLabelPosition=bottom;labelBackgroundColor=#ffffff;imageAspect=0;aspect=fixed;image=https://cdn4.iconfinder.com/data/icons/social-media-logos-6/512/74-outlook-128.png;strokeColor=default;" parent="1" vertex="1">
          <mxGeometry x="760" y="1100" width="50" height="50" as="geometry" />
        </mxCell>
        <mxCell id="vfHAoLINmW1o7PDfFwCl-71" style="edgeStyle=orthogonalEdgeStyle;rounded=0;orthogonalLoop=1;jettySize=auto;html=1;exitX=0.5;exitY=0;exitDx=0;exitDy=0;entryX=0.5;entryY=1;entryDx=0;entryDy=0;fontColor=#000000;startArrow=none;startFill=0;endArrow=none;endFill=0;strokeColor=#000000;" edge="1" parent="1" source="ZSADZLsk4UOC9W3OqM0E-43" target="ZSADZLsk4UOC9W3OqM0E-44">
          <mxGeometry relative="1" as="geometry" />
        </mxCell>
        <mxCell id="vfHAoLINmW1o7PDfFwCl-75" value="TRANSFORMED&amp;nbsp;&lt;br&gt;CSV" style="edgeLabel;html=1;align=center;verticalAlign=middle;resizable=0;points=[];fontColor=#000000;" vertex="1" connectable="0" parent="vfHAoLINmW1o7PDfFwCl-71">
          <mxGeometry x="-0.753" y="1" relative="1" as="geometry">
            <mxPoint as="offset" />
          </mxGeometry>
        </mxCell>
        <mxCell id="ZSADZLsk4UOC9W3OqM0E-43" value="STOCK_UPDATER" style="rounded=1;whiteSpace=wrap;html=1;strokeColor=none;fillColor=#7EA6E0;fontColor=#FFFFFF;" parent="1" vertex="1">
          <mxGeometry x="531" y="260.29" width="125" height="60" as="geometry" />
        </mxCell>
        <mxCell id="ZSADZLsk4UOC9W3OqM0E-49" value="EXTENAL COMPANIES" style="text;html=1;strokeColor=#d6b656;fillColor=#fff2cc;align=center;verticalAlign=middle;whiteSpace=wrap;rounded=0;" parent="1" vertex="1">
          <mxGeometry x="45" y="20" width="150" height="30" as="geometry" />
        </mxCell>
        <mxCell id="ZSADZLsk4UOC9W3OqM0E-51" style="edgeStyle=orthogonalEdgeStyle;rounded=0;orthogonalLoop=1;jettySize=auto;html=1;exitX=0.5;exitY=1;exitDx=0;exitDy=0;entryX=0.5;entryY=0;entryDx=0;entryDy=0;" parent="1" source="ZSADZLsk4UOC9W3OqM0E-50" target="ZSADZLsk4UOC9W3OqM0E-53" edge="1">
          <mxGeometry relative="1" as="geometry" />
        </mxCell>
        <mxCell id="ZSADZLsk4UOC9W3OqM0E-52" value="Stock update&lt;br&gt;By Mail" style="edgeLabel;html=1;align=center;verticalAlign=middle;resizable=0;points=[];" parent="ZSADZLsk4UOC9W3OqM0E-51" vertex="1" connectable="0">
          <mxGeometry x="-0.2578" relative="1" as="geometry">
            <mxPoint y="4" as="offset" />
          </mxGeometry>
        </mxCell>
        <mxCell id="ZSADZLsk4UOC9W3OqM0E-53" value="VBScript &lt;br&gt;Upload file to&lt;br&gt;API_SRV" style="shape=image;html=1;verticalAlign=top;verticalLabelPosition=bottom;labelBackgroundColor=#ffffff;imageAspect=0;aspect=fixed;image=https://cdn3.iconfinder.com/data/icons/humano2/128x128/mimetypes/application-x-executable-script.png;strokeColor=default;" parent="1" vertex="1">
          <mxGeometry x="880" y="269.29" width="50" height="50" as="geometry" />
        </mxCell>
        <mxCell id="ZSADZLsk4UOC9W3OqM0E-65" value="SHOPIFY" style="text;html=1;strokeColor=#2D7600;fillColor=#60a917;align=center;verticalAlign=middle;whiteSpace=wrap;rounded=0;fontColor=#ffffff;" parent="1" vertex="1">
          <mxGeometry x="45" y="60" width="150" height="30" as="geometry" />
        </mxCell>
        <mxCell id="ZSADZLsk4UOC9W3OqM0E-68" style="edgeStyle=orthogonalEdgeStyle;rounded=0;orthogonalLoop=1;jettySize=auto;html=1;fontColor=#000000;entryX=0.5;entryY=0;entryDx=0;entryDy=0;" parent="1" source="ZSADZLsk4UOC9W3OqM0E-15" target="vfHAoLINmW1o7PDfFwCl-15" edge="1">
          <mxGeometry relative="1" as="geometry">
            <mxPoint x="470.5" y="350" as="targetPoint" />
          </mxGeometry>
        </mxCell>
        <mxCell id="vfHAoLINmW1o7PDfFwCl-2" value="" style="group" vertex="1" connectable="0" parent="1">
          <mxGeometry x="845" y="45" width="120" height="60" as="geometry" />
        </mxCell>
        <mxCell id="ZSADZLsk4UOC9W3OqM0E-50" value="JLINE" style="rounded=1;whiteSpace=wrap;html=1;strokeColor=#d6b656;fillColor=#fff2cc;align=center;labelPosition=center;verticalLabelPosition=middle;verticalAlign=middle;spacingLeft=51;" parent="vfHAoLINmW1o7PDfFwCl-2" vertex="1">
          <mxGeometry width="120" height="60" as="geometry" />
        </mxCell>
        <mxCell id="vfHAoLINmW1o7PDfFwCl-1" value="" style="shape=image;html=1;verticalAlign=top;verticalLabelPosition=bottom;labelBackgroundColor=#ffffff;imageAspect=0;aspect=fixed;image=https://cdn0.iconfinder.com/data/icons/business-1390/24/20_-_Company-2-128.png" vertex="1" parent="vfHAoLINmW1o7PDfFwCl-2">
          <mxGeometry x="15" y="6" width="48" height="48" as="geometry" />
        </mxCell>
        <mxCell id="vfHAoLINmW1o7PDfFwCl-12" value="" style="group" vertex="1" connectable="0" parent="1">
          <mxGeometry x="340" y="-50" width="245" height="180" as="geometry" />
        </mxCell>
        <mxCell id="ZSADZLsk4UOC9W3OqM0E-60" value="" style="rounded=1;whiteSpace=wrap;html=1;strokeColor=#36393d;fillColor=#cdeb8b;" parent="vfHAoLINmW1o7PDfFwCl-12" vertex="1">
          <mxGeometry width="190" height="90" as="geometry" />
        </mxCell>
        <mxCell id="ZSADZLsk4UOC9W3OqM0E-58" value="Matrixify" style="shape=image;html=1;verticalAlign=top;verticalLabelPosition=bottom;labelBackgroundColor=none;imageAspect=0;aspect=fixed;image=https://cdn1.iconfinder.com/data/icons/material-core/23/extension-128.png;rounded=1;fontColor=#000000;strokeColor=default;fillColor=#7EA6E0;" parent="vfHAoLINmW1o7PDfFwCl-12" vertex="1">
          <mxGeometry x="20" y="20" width="50" height="50" as="geometry" />
        </mxCell>
        <mxCell id="ZSADZLsk4UOC9W3OqM0E-61" value="Update stock" style="rhombus;whiteSpace=wrap;html=1;rounded=1;fontColor=#333333;strokeColor=#666666;fillColor=#f5f5f5;" parent="vfHAoLINmW1o7PDfFwCl-12" vertex="1">
          <mxGeometry x="95" y="5" width="90" height="80" as="geometry" />
        </mxCell>
        <mxCell id="vfHAoLINmW1o7PDfFwCl-5" style="edgeStyle=orthogonalEdgeStyle;rounded=0;orthogonalLoop=1;jettySize=auto;html=1;exitX=1;exitY=0.5;exitDx=0;exitDy=0;" edge="1" parent="vfHAoLINmW1o7PDfFwCl-12" source="ZSADZLsk4UOC9W3OqM0E-58" target="ZSADZLsk4UOC9W3OqM0E-61">
          <mxGeometry relative="1" as="geometry" />
        </mxCell>
        <mxCell id="ZSADZLsk4UOC9W3OqM0E-62" value="Send Email" style="rounded=1;whiteSpace=wrap;html=1;strokeColor=#b85450;fillColor=#f8cecc;" parent="vfHAoLINmW1o7PDfFwCl-12" vertex="1">
          <mxGeometry x="40" y="150" width="80" height="30" as="geometry" />
        </mxCell>
        <mxCell id="ZSADZLsk4UOC9W3OqM0E-63" value="" style="edgeStyle=orthogonalEdgeStyle;rounded=0;orthogonalLoop=1;jettySize=auto;html=1;fontColor=#000000;" parent="vfHAoLINmW1o7PDfFwCl-12" source="ZSADZLsk4UOC9W3OqM0E-61" target="ZSADZLsk4UOC9W3OqM0E-62" edge="1">
          <mxGeometry relative="1" as="geometry" />
        </mxCell>
        <mxCell id="vfHAoLINmW1o7PDfFwCl-8" value="ON FAIL" style="edgeLabel;html=1;align=center;verticalAlign=middle;resizable=0;points=[];" vertex="1" connectable="0" parent="ZSADZLsk4UOC9W3OqM0E-63">
          <mxGeometry x="-0.2303" y="1" relative="1" as="geometry">
            <mxPoint x="-18" y="-3" as="offset" />
          </mxGeometry>
        </mxCell>
        <mxCell id="vfHAoLINmW1o7PDfFwCl-9" value="Send Email" style="rounded=1;whiteSpace=wrap;html=1;strokeColor=#82b366;fillColor=#d5e8d4;" vertex="1" parent="vfHAoLINmW1o7PDfFwCl-12">
          <mxGeometry x="165" y="150" width="80" height="30" as="geometry" />
        </mxCell>
        <mxCell id="vfHAoLINmW1o7PDfFwCl-10" style="edgeStyle=orthogonalEdgeStyle;rounded=0;orthogonalLoop=1;jettySize=auto;html=1;exitX=0.5;exitY=1;exitDx=0;exitDy=0;entryX=0.5;entryY=0;entryDx=0;entryDy=0;" edge="1" parent="vfHAoLINmW1o7PDfFwCl-12" source="ZSADZLsk4UOC9W3OqM0E-61" target="vfHAoLINmW1o7PDfFwCl-9">
          <mxGeometry relative="1" as="geometry" />
        </mxCell>
        <mxCell id="vfHAoLINmW1o7PDfFwCl-11" value="SUCCESS" style="edgeLabel;html=1;align=center;verticalAlign=middle;resizable=0;points=[];" vertex="1" connectable="0" parent="vfHAoLINmW1o7PDfFwCl-10">
          <mxGeometry x="-0.2545" y="2" relative="1" as="geometry">
            <mxPoint x="13" y="1" as="offset" />
          </mxGeometry>
        </mxCell>
        <mxCell id="vfHAoLINmW1o7PDfFwCl-38" style="edgeStyle=orthogonalEdgeStyle;rounded=0;orthogonalLoop=1;jettySize=auto;html=1;exitX=0;exitY=0.5;exitDx=0;exitDy=0;entryX=1;entryY=0.5;entryDx=0;entryDy=0;startArrow=none;startFill=0;endArrow=classic;endFill=1;" edge="1" parent="1" source="ZSADZLsk4UOC9W3OqM0E-44" target="ZSADZLsk4UOC9W3OqM0E-60">
          <mxGeometry relative="1" as="geometry" />
        </mxCell>
        <mxCell id="ZSADZLsk4UOC9W3OqM0E-44" value="FTP &lt;br&gt;Server" style="shape=image;html=1;verticalAlign=top;verticalLabelPosition=bottom;labelBackgroundColor=#ffffff;imageAspect=0;aspect=fixed;image=https://cdn4.iconfinder.com/data/icons/logos-brands-5/24/digitalocean-128.png;strokeColor=default;" parent="1" vertex="1">
          <mxGeometry x="613" y="-31" width="50" height="50" as="geometry" />
        </mxCell>
        <mxCell id="vfHAoLINmW1o7PDfFwCl-14" value="DOCKER CONTAINER" style="rounded=0;whiteSpace=wrap;html=1;fillColor=#dae8fc;align=center;strokeColor=#6c8ebf;" vertex="1" parent="1">
          <mxGeometry x="45" y="100" width="150" height="30" as="geometry" />
        </mxCell>
        <mxCell id="vfHAoLINmW1o7PDfFwCl-49" style="edgeStyle=orthogonalEdgeStyle;rounded=0;orthogonalLoop=1;jettySize=auto;html=1;exitX=0;exitY=0.5;exitDx=0;exitDy=0;entryX=1;entryY=0.5;entryDx=0;entryDy=0;startArrow=none;startFill=0;endArrow=classic;endFill=1;" edge="1" parent="1" source="vfHAoLINmW1o7PDfFwCl-15" target="vfHAoLINmW1o7PDfFwCl-44">
          <mxGeometry relative="1" as="geometry" />
        </mxCell>
        <mxCell id="vfHAoLINmW1o7PDfFwCl-74" style="edgeStyle=orthogonalEdgeStyle;rounded=0;orthogonalLoop=1;jettySize=auto;html=1;exitX=0.25;exitY=1;exitDx=0;exitDy=0;entryX=0.25;entryY=0;entryDx=0;entryDy=0;fontColor=#000000;startArrow=none;startFill=0;endArrow=classic;endFill=1;strokeColor=#FF0080;" edge="1" parent="1" source="vfHAoLINmW1o7PDfFwCl-15" target="vfHAoLINmW1o7PDfFwCl-72">
          <mxGeometry relative="1" as="geometry" />
        </mxCell>
        <mxCell id="vfHAoLINmW1o7PDfFwCl-15" value="MAIN API" style="rounded=1;whiteSpace=wrap;html=1;strokeColor=none;fillColor=#7EA6E0;fontColor=#FFFFFF;" vertex="1" parent="1">
          <mxGeometry x="410.5" y="350" width="120" height="60" as="geometry" />
        </mxCell>
        <mxCell id="vfHAoLINmW1o7PDfFwCl-19" value="FTP" style="rounded=1;whiteSpace=wrap;html=1;fillColor=#ffcccc;align=center;strokeColor=#36393d;verticalAlign=top;" vertex="1" parent="1">
          <mxGeometry x="710" y="240" width="110" height="250" as="geometry" />
        </mxCell>
        <mxCell id="vfHAoLINmW1o7PDfFwCl-41" style="edgeStyle=orthogonalEdgeStyle;rounded=0;orthogonalLoop=1;jettySize=auto;html=1;entryX=1;entryY=0.25;entryDx=0;entryDy=0;startArrow=none;startFill=0;endArrow=classic;endFill=1;" edge="1" parent="1" source="vfHAoLINmW1o7PDfFwCl-21" target="vfHAoLINmW1o7PDfFwCl-15">
          <mxGeometry relative="1" as="geometry">
            <Array as="points">
              <mxPoint x="710" y="365" />
              <mxPoint x="710" y="365" />
            </Array>
          </mxGeometry>
        </mxCell>
        <mxCell id="vfHAoLINmW1o7PDfFwCl-42" value="ON NEW IMAGE" style="edgeLabel;html=1;align=center;verticalAlign=middle;resizable=0;points=[];" vertex="1" connectable="0" parent="vfHAoLINmW1o7PDfFwCl-41">
          <mxGeometry x="-0.1664" y="2" relative="1" as="geometry">
            <mxPoint x="-31" y="-2" as="offset" />
          </mxGeometry>
        </mxCell>
        <mxCell id="vfHAoLINmW1o7PDfFwCl-21" value="imports" style="aspect=fixed;html=1;points=[];align=center;image;fontSize=12;image=img/lib/azure2/general/Folder_Blank.svg;rounded=1;fillColor=#7EA6E0;" vertex="1" parent="1">
          <mxGeometry x="740" y="339.71" width="50" height="40.58" as="geometry" />
        </mxCell>
        <mxCell id="vfHAoLINmW1o7PDfFwCl-70" style="edgeStyle=orthogonalEdgeStyle;rounded=0;orthogonalLoop=1;jettySize=auto;html=1;entryX=1;entryY=0.5;entryDx=0;entryDy=0;fontColor=#000000;startArrow=none;startFill=0;endArrow=classic;endFill=1;strokeColor=#000000;" edge="1" parent="1" source="vfHAoLINmW1o7PDfFwCl-22" target="ZSADZLsk4UOC9W3OqM0E-43">
          <mxGeometry relative="1" as="geometry" />
        </mxCell>
        <mxCell id="vfHAoLINmW1o7PDfFwCl-22" value="updates" style="aspect=fixed;html=1;points=[];align=center;image;fontSize=12;image=img/lib/azure2/general/Folder_Blank.svg;rounded=1;fillColor=#7EA6E0;" vertex="1" parent="1">
          <mxGeometry x="740" y="270" width="50" height="40.58" as="geometry" />
        </mxCell>
        <mxCell id="vfHAoLINmW1o7PDfFwCl-23" value="invoices" style="aspect=fixed;html=1;points=[];align=center;image;fontSize=12;image=img/lib/azure2/general/Folder_Blank.svg;rounded=1;fillColor=#7EA6E0;" vertex="1" parent="1">
          <mxGeometry x="740" y="410" width="50" height="40.58" as="geometry" />
        </mxCell>
        <mxCell id="vfHAoLINmW1o7PDfFwCl-27" style="edgeStyle=orthogonalEdgeStyle;rounded=0;orthogonalLoop=1;jettySize=auto;html=1;exitX=0;exitY=0.5;exitDx=0;exitDy=0;entryX=1.02;entryY=0.591;entryDx=0;entryDy=0;entryPerimeter=0;" edge="1" parent="1" source="ZSADZLsk4UOC9W3OqM0E-53" target="vfHAoLINmW1o7PDfFwCl-22">
          <mxGeometry relative="1" as="geometry" />
        </mxCell>
        <mxCell id="vfHAoLINmW1o7PDfFwCl-33" style="edgeStyle=orthogonalEdgeStyle;rounded=0;orthogonalLoop=1;jettySize=auto;html=1;exitX=1;exitY=0.5;exitDx=0;exitDy=0;entryX=0;entryY=0.493;entryDx=0;entryDy=0;entryPerimeter=0;startArrow=none;startFill=0;endArrow=classic;endFill=1;" edge="1" parent="1" source="vfHAoLINmW1o7PDfFwCl-15" target="vfHAoLINmW1o7PDfFwCl-23">
          <mxGeometry relative="1" as="geometry">
            <Array as="points">
              <mxPoint x="590" y="380" />
              <mxPoint x="590" y="430" />
            </Array>
          </mxGeometry>
        </mxCell>
        <mxCell id="vfHAoLINmW1o7PDfFwCl-34" value="ON NEW INVOICE" style="edgeLabel;html=1;align=center;verticalAlign=middle;resizable=0;points=[];labelBackgroundColor=default;" vertex="1" connectable="0" parent="vfHAoLINmW1o7PDfFwCl-33">
          <mxGeometry x="-0.1683" y="-3" relative="1" as="geometry">
            <mxPoint x="51" y="-3" as="offset" />
          </mxGeometry>
        </mxCell>
        <mxCell id="vfHAoLINmW1o7PDfFwCl-54" value="" style="edgeStyle=orthogonalEdgeStyle;rounded=0;orthogonalLoop=1;jettySize=auto;html=1;startArrow=none;startFill=0;endArrow=classic;endFill=1;" edge="1" parent="1" source="vfHAoLINmW1o7PDfFwCl-44" target="vfHAoLINmW1o7PDfFwCl-53">
          <mxGeometry relative="1" as="geometry" />
        </mxCell>
        <mxCell id="vfHAoLINmW1o7PDfFwCl-44" value="6AM&amp;nbsp;" style="shape=image;html=1;verticalAlign=top;verticalLabelPosition=bottom;labelBackgroundColor=#ffffff;imageAspect=0;aspect=fixed;image=https://cdn0.iconfinder.com/data/icons/zondicons/20/timer-128.png;rounded=0;shadow=0;glass=0;sketch=0;fillColor=#7EA6E0;" vertex="1" parent="1">
          <mxGeometry x="280" y="355" width="50" height="50" as="geometry" />
        </mxCell>
        <mxCell id="vfHAoLINmW1o7PDfFwCl-57" style="edgeStyle=orthogonalEdgeStyle;rounded=0;orthogonalLoop=1;jettySize=auto;html=1;exitX=1;exitY=0.5;exitDx=0;exitDy=0;entryX=0.179;entryY=0.033;entryDx=0;entryDy=0;entryPerimeter=0;fontColor=#FFFFFF;startArrow=none;startFill=0;endArrow=classic;endFill=1;strokeColor=#FF0080;" edge="1" parent="1" source="vfHAoLINmW1o7PDfFwCl-53" target="vfHAoLINmW1o7PDfFwCl-15">
          <mxGeometry relative="1" as="geometry" />
        </mxCell>
        <mxCell id="vfHAoLINmW1o7PDfFwCl-60" value="STEP 2" style="edgeLabel;html=1;align=center;verticalAlign=middle;resizable=0;points=[];fontColor=#000000;" vertex="1" connectable="0" parent="vfHAoLINmW1o7PDfFwCl-57">
          <mxGeometry x="0.1113" relative="1" as="geometry">
            <mxPoint as="offset" />
          </mxGeometry>
        </mxCell>
        <mxCell id="vfHAoLINmW1o7PDfFwCl-53" value="CLEAN ROUTINE&lt;br&gt;&lt;br&gt;GET ALL PRODUCTS" style="whiteSpace=wrap;html=1;rounded=1;shadow=0;verticalAlign=top;fillColor=#7EA6E0;glass=0;labelBackgroundColor=none;sketch=0;labelBorderColor=none;strokeColor=none;fontColor=#FFFFFF;" vertex="1" parent="1">
          <mxGeometry x="245" y="255.29" width="120" height="70" as="geometry" />
        </mxCell>
        <mxCell id="vfHAoLINmW1o7PDfFwCl-63" style="edgeStyle=orthogonalEdgeStyle;rounded=0;orthogonalLoop=1;jettySize=auto;html=1;exitX=0;exitY=0.5;exitDx=0;exitDy=0;entryX=1;entryY=0.5;entryDx=0;entryDy=0;fontColor=#000000;startArrow=none;startFill=0;endArrow=classic;endFill=1;strokeColor=#0000FF;" edge="1" parent="1" source="ZSADZLsk4UOC9W3OqM0E-14" target="ZSADZLsk4UOC9W3OqM0E-31">
          <mxGeometry relative="1" as="geometry" />
        </mxCell>
        <mxCell id="vfHAoLINmW1o7PDfFwCl-65" value="Stock update" style="edgeLabel;html=1;align=center;verticalAlign=middle;resizable=0;points=[];fontColor=#000000;" vertex="1" connectable="0" parent="vfHAoLINmW1o7PDfFwCl-63">
          <mxGeometry x="0.2922" y="1" relative="1" as="geometry">
            <mxPoint x="18" y="-1" as="offset" />
          </mxGeometry>
        </mxCell>
        <mxCell id="vfHAoLINmW1o7PDfFwCl-72" value="MYSQL-PROD" style="rounded=1;whiteSpace=wrap;html=1;strokeColor=none;fillColor=#7EA6E0;fontColor=#FFFFFF;verticalAlign=top;" vertex="1" parent="1">
          <mxGeometry x="411" y="430" width="120" height="60" as="geometry" />
        </mxCell>
        <mxCell id="ZSADZLsk4UOC9W3OqM0E-37" value="" style="shape=image;html=1;verticalAlign=top;verticalLabelPosition=bottom;labelBackgroundColor=#ffffff;imageAspect=0;aspect=fixed;image=https://cdn4.iconfinder.com/data/icons/logos-3/181/MySQL-128.png;strokeColor=default;imageBorder=none;" parent="1" vertex="1">
          <mxGeometry x="452.5" y="450.58" width="36" height="36" as="geometry" />
        </mxCell>
        <mxCell id="vfHAoLINmW1o7PDfFwCl-73" style="edgeStyle=orthogonalEdgeStyle;rounded=0;orthogonalLoop=1;jettySize=auto;html=1;exitX=0.75;exitY=1;exitDx=0;exitDy=0;entryX=0.75;entryY=0;entryDx=0;entryDy=0;fontColor=#000000;startArrow=classic;startFill=1;endArrow=classic;endFill=1;strokeColor=#000000;" edge="1" parent="1" source="vfHAoLINmW1o7PDfFwCl-15" target="vfHAoLINmW1o7PDfFwCl-72">
          <mxGeometry relative="1" as="geometry" />
        </mxCell>
      </root>
    </mxGraphModel>
  </diagram>
</mxfile>
